<?xml version="1.0" ?><svg id="Layer_1" style="enable-background:new 0 0 512 512;" version="1.1" viewBox="0 0 512 512" xml:space="preserve" xmlns="http://www.w3.org/2000/svg" xmlns:xlink="http://www.w3.org/1999/xlink"><style type="text/css">
	.st0{fill-rule:evenodd;clip-rule:evenodd;fill:#DFDFE0;}
	.st1{fill:#0779BE;}
	.st2{fill:#FFFFFF;}
	.st3{fill:#211E1F;}
</style><g><path class="st0" d="M489.2,94.5H21.9c-9.1,0-14.8,1.4-17.9,4.3c-2.7,3.3-4,8.7-4,16.7v29.9v24.1v172.3V367v28.8   c0,14.3,7.4,21.7,21.9,21.7h467.3c15.2,0,22.8-7.4,22.8-21.7V367v-25.2V169.4v-24.1v-29.9C512,101.3,504.4,94.5,489.2,94.5z"/><g id="__x0023_Layer_x0020_1"><path class="st1" d="M138.5,305.4c27,0.1,51.6-22,51.6-48.9c0-29.4-24.6-49.8-51.6-49.8h-23.2c-27.3,0-49.8,20.3-49.8,49.8    c0,26.9,22.5,49.1,49.8,48.9H138.5z"/><path class="st2" d="M115.4,210.7c-24.9,0-45.2,20.2-45.2,45.2c0,25,20.2,45.2,45.2,45.2c25,0,45.2-20.2,45.2-45.2    C160.6,231,140.4,210.7,115.4,210.7z M86.8,255.9L86.8,255.9c0-12.2,7.6-22.6,18.4-26.7v53.4C94.4,278.5,86.8,268.1,86.8,255.9z     M125.7,282.6L125.7,282.6v-53.5c10.7,4.1,18.4,14.5,18.4,26.7C144,268.1,136.4,278.5,125.7,282.6z"/><path class="st3" d="M206,227.9c0-4.7-2.4-4.4-4.8-4.4v-1.3c2,0.1,4.1,0.1,6.1,0.1c2.2,0,5.1-0.1,9-0.1c13.4,0,20.8,9,20.8,18.2    c0,5.1-3,18.1-21.4,18.1c-2.6,0-5.1-0.1-7.5-0.1c-2.3,0-4.6,0.1-7,0.1V257c3.1-0.3,4.6-0.4,4.8-3.9L206,227.9L206,227.9z     M211,252.2L211,252.2c0,4,2.9,4.5,5.4,4.5c11.2,0,14.9-8.5,14.9-16.2c0-9.7-6.2-16.7-16.2-16.7c-2.1,0-3.1,0.2-4.1,0.2V252.2    L211,252.2z"/><path class="st3" d="M238.9,257h1c1.5,0,2.5,0,2.5-1.7v-14.1c0-2.3-0.8-2.6-2.7-3.6v-0.8c2.4-0.7,5.3-1.7,5.6-1.9    c0.4-0.2,0.7-0.3,0.9-0.3c0.3,0,0.4,0.3,0.4,0.7v19.9c0,1.7,1.1,1.7,2.6,1.7h0.9v1.3c-1.8,0-3.6-0.1-5.4-0.1    c-1.9,0-3.7,0.1-5.7,0.1V257L238.9,257z M244.4,226.6L244.4,226.6c-1.4,0-2.5-1.2-2.5-2.6c0-1.3,1.2-2.5,2.5-2.5    c1.3,0,2.5,1.1,2.5,2.5C247,225.4,245.8,226.6,244.4,226.6z"/><path class="st3" d="M254.9,241.5c0-1.9-0.6-2.4-3-3.4v-1c2.2-0.7,4.4-1.4,6.8-2.5c0.2,0,0.3,0.1,0.3,0.5v3.4c3-2.1,5.5-3.9,9-3.9    c4.4,0,6,3.2,6,7.3v13.4c0,1.7,1.1,1.7,2.6,1.7h0.9v1.3c-1.8,0-3.6-0.1-5.5-0.1c-1.9,0-3.7,0.1-5.6,0.1V257h0.9    c1.5,0,2.5,0,2.5-1.7v-13.4c0-3-1.8-4.4-4.8-4.4c-1.7,0-4.3,1.3-6,2.5v15.4c0,1.7,1.1,1.7,2.6,1.7h0.9v1.3c-1.8,0-3.6-0.1-5.5-0.1    c-1.9,0-3.7,0.1-5.6,0.1V257h0.9c1.5,0,2.5,0,2.5-1.7V241.5L254.9,241.5z"/><path class="st3" d="M281.5,244c-0.1,0.5-0.1,1.2,0,3c0.3,4.9,3.5,9,7.6,9c2.9,0,5.1-1.6,7-3.5l0.7,0.7c-2.4,3.2-5.3,5.9-9.6,5.9    c-8.3,0-9.9-8-9.9-11.3c0-10.2,6.9-13.2,10.5-13.2c4.2,0,8.7,2.6,8.8,8.1c0,0.3,0,0.6,0,0.9l-0.5,0.3H281.5L281.5,244z     M290.7,242.4L290.7,242.4c1.3,0,1.4-0.7,1.4-1.3c0-2.6-1.6-4.8-4.5-4.8c-3.2,0-5.3,2.3-6,6.1H290.7L290.7,242.4z"/><path class="st3" d="M297.8,257h1.4c1.4,0,2.5,0,2.5-1.7v-14.6c0-1.6-1.9-1.9-2.7-2.3v-0.8c3.8-1.6,5.9-3,6.3-3    c0.3,0,0.5,0.2,0.5,0.7v4.7h0.1c1.3-2,3.5-5.3,6.6-5.3c1.3,0,3,0.9,3,2.8c0,1.4-1,2.7-2.4,2.7c-1.6,0-1.6-1.2-3.4-1.2    c-0.9,0-3.8,1.2-3.8,4.3v12.2c0,1.7,1,1.7,2.5,1.7h2.9v1.3c-2.9-0.1-5-0.1-7.3-0.1c-2.1,0-4.3,0.1-6.2,0.1V257L297.8,257z"/><path class="st3" d="M317.8,251.1c0.7,3.4,2.7,6.3,6.5,6.3c3.1,0,4.2-1.9,4.2-3.7c0-6.1-11.3-4.2-11.3-12.5c0-2.9,2.3-6.6,8-6.6    c1.7,0,3.9,0.5,5.9,1.5l0.4,5.3h-1.2c-0.5-3.3-2.3-5.1-5.7-5.1c-2.1,0-4,1.2-4,3.4c0,6.1,12,4.2,12,12.4c0,3.4-2.8,7.1-8.9,7.1    c-2.1,0-4.5-0.7-6.3-1.8l-0.6-6L317.8,251.1L317.8,251.1z"/><path class="st3" d="M379.5,231.5h-1.3c-1-6.1-5.3-8.5-11.1-8.5c-6,0-14.6,4-14.6,16.5c0,10.5,7.5,18,15.5,18    c5.1,0,9.4-3.5,10.4-9l1.2,0.3l-1.2,7.6c-2.2,1.4-8,2.8-11.5,2.8c-12.1,0-19.8-7.8-19.8-19.5c0-10.6,9.5-18.3,19.7-18.3    c4.2,0,8.3,1.4,12.2,2.8L379.5,231.5L379.5,231.5z"/><path class="st3" d="M381.4,257h1c1.5,0,2.5,0,2.5-1.7v-28.9c0-3.4-0.8-3.5-2.8-4.1v-0.8c2.1-0.7,4.3-1.6,5.3-2.2    c0.6-0.3,1-0.6,1.1-0.6c0.3,0,0.4,0.3,0.4,0.7v35.9c0,1.7,1.1,1.7,2.6,1.7h0.9v1.3c-1.8,0-3.6-0.1-5.4-0.1c-1.9,0-3.7,0.1-5.7,0.1    L381.4,257L381.4,257z"/><path class="st3" d="M414.7,255.5c0,0.9,0.6,1,1.4,1c0.6,0,1.4-0.1,2.1-0.1v1.1c-2.2,0.2-6.5,1.3-7.5,1.6l-0.3-0.2v-4.2    c-3.1,2.5-5.5,4.4-9.2,4.4c-2.8,0-5.7-1.8-5.7-6.2v-13.3c0-1.3-0.2-2.6-3.1-2.9v-1c1.9-0.1,6-0.4,6.7-0.4c0.6,0,0.6,0.4,0.6,1.5    v13.4c0,1.6,0,6,4.5,6c1.8,0,4.1-1.3,6.3-3.2v-14c0-1-2.5-1.6-4.4-2.1v-0.9c4.7-0.3,7.6-0.7,8.1-0.7c0.4,0,0.4,0.4,0.4,0.9    L414.7,255.5L414.7,255.5z"/><path class="st3" d="M425,238.4c2.1-1.8,4.9-3.7,7.7-3.7c6,0,9.7,5.2,9.7,10.9c0,6.8-5,13.6-12.4,13.6c-3.8,0-5.9-1.2-7.2-1.8    l-1.6,1.2l-1.1-0.6c0.5-3.1,0.7-6.1,0.7-9.2v-22.3c0-3.4-0.8-3.5-2.8-4v-0.8c2.1-0.7,4.3-1.6,5.3-2.2c0.6-0.3,1-0.6,1.1-0.6    c0.3,0,0.4,0.3,0.4,0.7V238.4L425,238.4L425,238.4z M425,252.5L425,252.5c0,2,1.9,5.3,5.3,5.3c5.6,0,7.9-5.5,7.9-10.1    c0-5.6-4.3-10.3-8.3-10.3c-1.9,0-3.5,1.2-4.9,2.4V252.5L425,252.5z"/><path class="st3" d="M201.1,288.5h0.4c1,0,2.1-0.1,2.1-1.6v-14.8c0-1.5-1.1-1.6-2.1-1.6h-0.4v-0.8c1.1,0,2.8,0.1,4.2,0.1    c1.4,0,3.1-0.1,4.4-0.1v0.8h-0.4c-1,0-2.1,0.1-2.1,1.6v14.8c0,1.5,1.1,1.6,2.1,1.6h0.4v0.9c-1.4,0-3.1-0.1-4.5-0.1    c-1.4,0-3.1,0.1-4.2,0.1V288.5L201.1,288.5z"/><path class="st3" d="M209.7,289.5c-1.4,0-3.1-0.1-4.5-0.1c-1.4,0-3,0.1-4.2,0.1H201v-0.1v-0.8v-0.1h0.1h0.4c1,0,2-0.1,2-1.5v-14.8    c0-1.4-0.9-1.5-2-1.5H201v-0.1v-1h0.1c1.1,0,2.8,0.1,4.2,0.1c1.4,0,3.1-0.1,4.4-0.1h0.1v0.1v1h-0.1h-0.4c-1,0-2,0.1-2,1.5v14.8    c0,1.4,0.9,1.5,2,1.5h0.5v0.1v1H209.7L209.7,289.5z M209.6,289.3L209.6,289.3v-0.6h-0.3c-1,0-2.2-0.2-2.2-1.7v-14.8    c0-1.6,1.2-1.7,2.2-1.7h0.3v-0.6c-1.3,0-2.9,0.1-4.3,0.1c-1.3,0-3-0.1-4.1-0.1v0.6h0.3c1,0,2.2,0.2,2.2,1.7v14.8    c0,1.6-1.2,1.7-2.2,1.7h-0.3v0.6c1.1,0,2.7-0.1,4-0.1C206.7,289.2,208.3,289.3,209.6,289.3L209.6,289.3z"/><path class="st3" d="M229.1,283.8L229.1,283.8l0.1-10.6c0-2.3-1.6-2.7-2.5-2.7h-0.6v-0.8c1.3,0,2.6,0.1,4,0.1    c1.2,0,2.3-0.1,3.5-0.1v0.8h-0.4c-1.2,0-2.5,0.2-2.5,3.6V287c0,1,0,2,0.2,2.9h-1.1l-14.5-16.2v11.6c0,2.5,0.5,3.3,2.7,3.3h0.5v0.9    c-1.2,0-2.4-0.1-3.6-0.1c-1.3,0-2.6,0.1-3.8,0.1v-0.9h0.4c1.9,0,2.5-1.3,2.5-3.6v-11.9c0-1.6-1.3-2.5-2.6-2.5h-0.4v-0.8    c1.1,0,2.2,0.1,3.2,0.1c0.8,0,1.7-0.1,2.5-0.1L229.1,283.8L229.1,283.8z"/><path class="st3" d="M230.8,289.9l-1.2,0l-14.3-16v11.3c0,2.5,0.4,3.2,2.5,3.2h0.6v0.1v1h-0.1c-1.2,0-2.4-0.1-3.6-0.1    c-1.3,0-2.6,0.1-3.8,0.1h-0.1v-0.1v-1h0.1h0.4c1.9,0,2.4-1.2,2.4-3.5v-11.9c0-1.5-1.2-2.4-2.4-2.4h-0.5v-0.1v-1h0.1    c1.1,0,2.2,0.1,3.2,0.1c0.8,0,1.7-0.1,2.6-0.1l12.4,14v-10.4c0-2.2-1.5-2.5-2.3-2.5H226v-0.1v-1h0.1c1.3,0,2.6,0.1,4,0.1    c1.1,0,2.3-0.1,3.5-0.1h0.1v0.1v1h-0.1h-0.4c-1.2,0-2.4,0.1-2.4,3.5V287c0,1,0,2,0.2,2.8l0,0.1L230.8,289.9L230.8,289.9z     M229.7,289.7L229.7,289.7h0.9c-0.1-0.8-0.1-1.8-0.1-2.7v-12.9c0-3.4,1.4-3.7,2.6-3.7h0.3v-0.6c-1.1,0-2.2,0.1-3.4,0.1    c-1.3,0-2.5-0.1-3.8-0.1l0,0.6h0.5c0.9,0,2.6,0.4,2.6,2.8l0,10.7l-0.1,0.1l-0.1,0.1l-12.6-14.2c-0.8,0-1.7,0.1-2.5,0.1    c-1,0-2.1-0.1-3.1-0.1l0,0.6h0.2c1.3,0,2.7,1,2.7,2.7V285c0,2.3-0.6,3.7-2.7,3.7l-0.3,0v0.6c1.2,0,2.5-0.1,3.7-0.1    c1.2,0,2.4,0.1,3.5,0.1v-0.6h-0.4c-2.2,0-2.8-1-2.8-3.4v-12L229.7,289.7L229.7,289.7z M229.1,283.8L229.1,283.8L229.1,283.8    L229.1,283.8z M229.1,283.8L229.1,283.8L229.1,283.8L229.1,283.8L229.1,283.8z"/><path class="st3" d="M237.8,271.1c-2.1,0-2.2,0.5-2.6,2.6h-0.8c0.1-0.8,0.3-1.6,0.3-2.4c0.1-0.8,0.2-1.6,0.2-2.4h0.7    c0.2,0.8,0.9,0.8,1.7,0.8h14.6c0.8,0,1.5,0,1.5-0.9l0.7,0.1c-0.1,0.8-0.2,1.5-0.3,2.3c-0.1,0.8-0.1,1.5-0.1,2.3l-0.8,0.3    c-0.1-1-0.2-2.7-2.1-2.7H246v15c0,2.2,1,2.4,2.3,2.4h0.5v0.9c-1.1,0-3.1-0.1-4.6-0.1c-1.7,0-3.7,0.1-4.8,0.1v-0.9h0.5    c1.6,0,2.3-0.1,2.3-2.4v-15.1H237.8L237.8,271.1z"/><path class="st3" d="M248.9,289.5c-1.1,0-3.1-0.1-4.6-0.1c-1.7,0-3.7,0.1-4.8,0.1h-0.1v-0.1v-1h0.1h0.5c1.6,0,2.2-0.1,2.2-2.2v-15    h-4.5v-0.1V271h4.8v15.2c0,2.3-0.9,2.5-2.5,2.5h-0.4v0.6c1.1,0,3-0.1,4.7-0.1c1.5,0,3.4,0.1,4.5,0.1v-0.6h-0.4    c-1.4,0-2.5-0.3-2.5-2.6V271h4.8c1.9,0,2.1,1.6,2.2,2.7l0.6-0.2c0-0.7,0-1.5,0.1-2.2c0.1-0.7,0.2-1.4,0.3-2.2l-0.4-0.1    c-0.1,0.8-0.9,0.9-1.6,0.9h-14.6H237c-0.7,0-1.4,0-1.6-0.8h-0.5c0,0.8-0.1,1.5-0.2,2.3c-0.1,0.8-0.2,1.5-0.3,2.3h0.6    c0.4-2,0.6-2.6,2.7-2.6v0.1v0.1c-2.1,0-2,0.4-2.5,2.5l0,0.1h-0.1h-1l0-0.1c0.1-0.8,0.3-1.6,0.3-2.4c0.1-0.8,0.2-1.6,0.2-2.4v-0.1    h0.1h0.8l0,0.1c0.2,0.7,0.7,0.7,1.4,0.7h0.1h14.6c0.8,0,1.4,0,1.4-0.8l0-0.1l0.1,0l0.8,0.1l0,0.1c-0.1,0.8-0.2,1.5-0.3,2.3    c-0.1,0.8-0.1,1.5-0.1,2.3v0.1l-0.1,0l-1,0.4l0-0.2c-0.1-1.1-0.2-2.6-2-2.6h-4.5v14.9c0,2.1,0.9,2.3,2.2,2.3h0.7v0.1v1H248.9    L248.9,289.5z"/><path class="st3" d="M254.9,288.5h0.4c1,0,2.1-0.1,2.1-1.6v-14.8c0-1.5-1.1-1.6-2.1-1.6h-0.4v-0.8c1.7,0,4.7,0.1,7,0.1    c2.4,0,5.3-0.1,7.2-0.1c0,1.2,0,3.1,0.1,4.3l-0.9,0.2c-0.1-1.8-0.5-3.3-3.4-3.3H261v7.4h3.4c1.7,0,2.1-1,2.2-2.5h0.8    c-0.1,1.1-0.1,2.2-0.1,3.3c0,1.1,0,2.1,0.1,3.2l-0.8,0.2c-0.2-1.7-0.3-2.8-2.2-2.8H261v6.6c0,1.8,1.6,1.8,3.4,1.8    c3.4,0,4.9-0.2,5.7-3.4l0.8,0.2c-0.4,1.5-0.7,3-1,4.5c-1.8,0-5.1-0.1-7.6-0.1c-2.5,0-5.9,0.1-7.5,0.1V288.5L254.9,288.5z"/><path class="st3" d="M270,289.5c-1.8,0-5.1-0.1-7.6-0.1c-2.5,0-5.9,0.1-7.5,0.1h-0.1v-0.1v-0.9v-0.1h0.1h0.4c1,0,2-0.1,2-1.5    v-14.8c0-1.4-0.9-1.5-2-1.5h-0.5v-0.1v-1h0.1c1.7,0,4.7,0.1,7,0.1c2.4,0,5.3-0.1,7.2-0.1h0.1l0,0.1c0,0.4,0,0.9,0,1.5    c0,1,0,2,0.1,2.8l0,0.1l-0.1,0l-1,0.3l0-0.1c-0.2-1.8-0.4-3.2-3.3-3.2h-3.8l0,7.2h3.2c1.6,0,1.9-0.8,2.1-2.4l0-0.1h0.1h1l0,0.1    c-0.1,1.1-0.1,2.2-0.1,3.3c0,1.1,0,2.1,0.1,3.2l0,0.1l-0.1,0l-1,0.2l0-0.1c-0.2-1.7-0.2-2.7-2.1-2.7l-3.3,0v6.5    c0,1.7,1.5,1.7,3.3,1.7c3.4,0,4.8-0.2,5.6-3.4l0-0.1l0.1,0l0.9,0.2l0,0.1c-0.4,1.5-0.7,3-1,4.5L270,289.5L270,289.5L270,289.5z     M269.9,289.3L269.9,289.3c0.2-1.4,0.6-2.9,0.9-4.3l-0.6-0.1c-0.8,3.2-2.5,3.4-5.8,3.4c-1.8,0-3.6,0-3.6-2v-6.7h3.5    c2,0,2.2,1.2,2.3,2.8l0.6-0.1c-0.1-1-0.1-2.1-0.1-3.1c0-1.1,0-2.1,0.1-3.2h-0.6c-0.2,1.5-0.6,2.5-2.3,2.5h-3.5v-7.6h4.1    c2.9,0,3.4,1.5,3.5,3.3l0.6-0.2c0-0.8-0.1-1.8-0.1-2.8c0-0.5,0-0.9,0-1.3c-1.9,0-4.8,0.1-7.1,0.1c-2.3,0-5.2-0.1-6.9-0.1v0.6h0.3    c1,0,2.2,0.2,2.2,1.7v14.8c0,1.6-1.2,1.7-2.2,1.7H255v0.6c1.6,0,4.9-0.1,7.4-0.1C264.9,289.2,268,289.3,269.9,289.3L269.9,289.3z"/><path class="st3" d="M274.7,272.7c0-2.1-1.1-2.1-2-2.1h-0.5v-0.8c0.9,0,2.7,0.1,4.4,0.1c1.7,0,3.1-0.1,4.5-0.1c3.6,0,6.7,1,6.7,5    c0,2.5-1.7,4.1-3.9,5l4.8,7.2c0.8,1.2,1.4,1.5,2.7,1.7v0.9c-0.9,0-1.8-0.1-2.8-0.1c-0.9,0-1.8,0.1-2.7,0.1c-2.2-2.9-4-5.9-5.9-9.2    h-1.9v6c0,2.2,1,2.3,2.3,2.3h0.5v0.9c-1.6,0-3.2-0.1-4.9-0.1c-1.4,0-2.7,0.1-4.1,0.1v-0.9h0.5c1,0,2-0.5,2-1.5V272.7L274.7,272.7z     M278.4,279.2L278.4,279.2h1.4c2.8,0,4.3-1.1,4.3-4.4c0-2.5-1.6-4.1-4.1-4.1c-0.8,0-1.2,0.1-1.6,0.1V279.2L278.4,279.2z"/><path class="st3" d="M291.5,289.5c-0.9,0-1.8-0.1-2.8-0.1c-0.9,0-1.8,0.1-2.7,0.1c-2.2-2.8-4-5.9-5.8-9.1h-1.7v5.9    c0,2.1,0.9,2.1,2.2,2.1h0.6v0.1v1h-0.1c-1.6,0-3.3-0.1-4.9-0.1c-1.3,0-2.7,0.1-4.1,0.1h-0.1v-0.1v-1h0.1h0.5c1,0,1.9-0.4,1.9-1.4    v-14.4c0-2-1-2-1.9-2h-0.6v-0.1v-1h0.1c0.9,0,2.7,0.1,4.4,0.1c1.7,0,3-0.1,4.5-0.1c3.6,0,6.8,1,6.8,5.1c0,2.6-1.7,4.1-3.9,5    l4.7,7.1c0.8,1.2,1.3,1.5,2.7,1.6l0.1,0v0.1v1H291.5L291.5,289.5z M278.4,280.1L278.4,280.1h1.9l0,0.1c1.8,3.2,3.7,6.3,5.8,9.1    c0.9,0,1.8-0.1,2.6-0.1c0.9,0,1.8,0.1,2.7,0.1v-0.6c-1.3-0.2-1.9-0.6-2.7-1.7l-4.9-7.4l0.1-0.1c2.2-0.9,3.8-2.4,3.8-4.9    c0-3.9-3-4.8-6.6-4.8c-1.5,0-2.8,0.1-4.5,0.1c-1.7,0-3.3-0.1-4.3-0.1v0.6h0.4c0.9,0,2.1,0.1,2.1,2.3V287c0,1.1-1.1,1.7-2.1,1.7    h-0.4v0.6c1.4,0,2.6-0.1,4-0.1c1.6,0,3.2,0.1,4.7,0.1v-0.6h-0.4c-1.3,0-2.4-0.2-2.4-2.4v-6.2H278.4L278.4,280.1z M278.4,279.3    L278.4,279.3h-0.1v-8.6l0.1,0c0.4,0,0.8-0.1,1.6-0.1c2.6,0,4.2,1.7,4.3,4.2c0,3.4-1.6,4.5-4.5,4.5H278.4L278.4,279.3z     M279.7,279.1L279.7,279.1c2.8,0,4.2-1,4.2-4.3c0-2.5-1.5-4-4-4c-0.8,0-1.1,0.1-1.5,0.1v8.2H279.7L279.7,279.1z"/><path class="st3" d="M310.7,283.8L310.7,283.8l0.1-10.6c0-2.3-1.6-2.7-2.5-2.7h-0.6v-0.8c1.3,0,2.6,0.1,4,0.1    c1.2,0,2.3-0.1,3.5-0.1v0.8h-0.4c-1.2,0-2.5,0.2-2.5,3.6V287c0,1,0,2,0.2,2.9h-1.1l-14.5-16.2v11.6c0,2.5,0.5,3.3,2.7,3.3h0.5v0.9    c-1.2,0-2.4-0.1-3.6-0.1c-1.3,0-2.6,0.1-3.8,0.1v-0.9h0.4c2,0,2.5-1.3,2.5-3.6v-11.9c0-1.6-1.3-2.5-2.6-2.5h-0.4v-0.8    c1.1,0,2.2,0.1,3.2,0.1c0.8,0,1.7-0.1,2.5-0.1L310.7,283.8L310.7,283.8z"/><path class="st3" d="M312.3,289.9l-1.2,0l-14.3-16v11.3c0,2.5,0.4,3.2,2.5,3.2h0.6v0.1v1h-0.1c-1.2,0-2.4-0.1-3.6-0.1    c-1.3,0-2.6,0.1-3.8,0.1h-0.1v-0.1v-1h0.1h0.4c1.9,0,2.4-1.2,2.4-3.5v-11.9c0-1.5-1.2-2.4-2.4-2.4h-0.5v-0.1v-1h0.1    c1.1,0,2.2,0.1,3.2,0.1c0.8,0,1.6-0.1,2.6-0.1l12.4,14v-10.4c0-2.2-1.5-2.5-2.3-2.5h-0.7v-0.1v-1h0.1c1.3,0,2.6,0.1,4,0.1    c1.2,0,2.3-0.1,3.5-0.1h0.1v0.1v1h-0.1h-0.4c-1.2,0-2.4,0.1-2.4,3.5V287c0,1,0,2,0.2,2.8l0,0.1H312.3L312.3,289.9z M311.3,289.7    L311.3,289.7h0.9c-0.1-0.8-0.2-1.8-0.2-2.7v-12.9c0-3.4,1.4-3.7,2.6-3.7h0.3v-0.6c-1.1,0-2.2,0.1-3.3,0.1c-1.3,0-2.6-0.1-3.8-0.1    v0.6h0.5c0.9,0,2.6,0.4,2.6,2.8l0,10.7l-0.1,0.1l-0.1,0.1l-12.6-14.2c-0.8,0-1.7,0.1-2.5,0.1c-1,0-2.1-0.1-3.1-0.1v0.6h0.3    c1.3,0,2.7,1,2.7,2.7v11.9c0,2.3-0.6,3.7-2.7,3.7l-0.3,0v0.6c1.2,0,2.5-0.1,3.7-0.1c1.2,0,2.4,0.1,3.5,0.1v-0.6h-0.4    c-2.2,0-2.8-1-2.8-3.4v-12L311.3,289.7L311.3,289.7z M310.7,283.8L310.7,283.8L310.7,283.8L310.7,283.8z M310.6,283.8L310.6,283.8    L310.6,283.8L310.6,283.8L310.6,283.8z"/><path class="st3" d="M319.6,285.3c-0.3,1-0.6,1.7-0.6,2.2c0,0.9,1.2,1,2.1,1h0.3v0.9c-1.1-0.1-2.3-0.1-3.4-0.1c-1,0-2,0.1-3,0.1    v-0.9h0.2c1.1,0,2-0.6,2.5-1.8l4.5-13c0.4-1,0.9-2.5,1-3.5c0.9-0.3,2-0.9,2.6-1.2c0.1,0,0.1-0.1,0.2-0.1c0.1,0,0.1,0,0.2,0.1    c0.1,0.2,0.2,0.5,0.3,0.7l5.2,14.8c0.3,1,0.7,2,1,2.9c0.3,0.8,0.9,1.1,1.9,1.1h0.2v0.9c-1.3-0.1-2.5-0.1-3.9-0.1    c-1.4,0-2.8,0.1-4.2,0.1v-0.9h0.3c0.6,0,1.8-0.1,1.8-0.8c0-0.4-0.3-1.1-0.6-2l-1.1-3.3h-6.4L319.6,285.3L319.6,285.3z     M323.8,272.8L323.8,272.8L323.8,272.8l-2.7,8h5.3L323.8,272.8z"/><path class="st3" d="M334.7,289.5c-1.3-0.1-2.5-0.1-3.9-0.1c-1.4,0-2.8,0.1-4.2,0.1l-0.1,0v-0.1v-1h0.1h0.3c0.7,0,1.6-0.1,1.6-0.7    c0-0.3-0.2-1.1-0.6-2l-1.1-3.2h-6.2l-0.9,2.9c-0.3,1-0.6,1.7-0.6,2.2c0,0.7,1.1,0.9,2,0.9h0.4v0.1v1l-0.1,0    c-1.1-0.1-2.3-0.1-3.4-0.1c-1,0-2,0.1-3,0.1l-0.1,0v-0.1v-1h0.1h0.2c1.1,0,1.9-0.6,2.3-1.7l4.5-13c0.4-1,0.9-2.5,1.1-3.6    c0.9-0.3,2-0.9,2.6-1.2c0.1,0,0.2-0.1,0.3-0.1c0.1,0,0.2,0,0.3,0.2c0.1,0.2,0.2,0.5,0.3,0.7l5.2,14.8c0.3,1,0.7,2,1,2.9    c0.3,0.8,0.8,1.1,1.8,1.1h0.3v0.1v1L334.7,289.5L334.7,289.5z M326.7,289.3L326.7,289.3c1.4,0,2.8-0.1,4.1-0.1    c1.3,0,2.5,0.1,3.8,0.1v-0.6h0c-1,0-1.6-0.4-2-1.2c-0.4-0.9-0.7-1.9-1-2.9l-5.2-14.8c-0.1-0.2-0.2-0.5-0.2-0.7c0,0,0,0,0,0H326    c-0.1,0-0.1,0-0.2,0c-0.5,0.4-1.7,0.9-2.5,1.1c-0.2,1.1-0.7,2.5-1,3.5l-4.5,13c-0.4,1.2-1.4,1.9-2.6,1.9h0v0.6    c1,0,1.9-0.1,2.9-0.1c1.1,0,2.2,0.1,3.3,0.1v-0.6h-0.2c-0.9,0-2.2-0.1-2.2-1.1c0-0.6,0.3-1.3,0.6-2.2l0.1,0l-0.1,0l0.9-3h6.6    l1.1,3.4c0.3,0.9,0.6,1.7,0.6,2.1c0,0.9-1.2,0.9-1.9,0.9h-0.2V289.3L326.7,289.3z M320.9,281L320.9,281l2.7-8.2h0.1h0.1v0.1l0,0    l0,0v-0.1h0.1l2.7,8.2H320.9z M321.2,280.7L321.2,280.7h4.9l-2.5-7.6L321.2,280.7z M323.6,272.9L323.6,272.9L323.6,272.9    L323.6,272.9z"/><path class="st3" d="M335.9,271.1c-2.1,0-2.2,0.5-2.6,2.6h-0.8c0.1-0.8,0.3-1.6,0.3-2.4c0.1-0.8,0.2-1.6,0.2-2.4h0.7    c0.2,0.8,0.9,0.8,1.7,0.8h14.6c0.8,0,1.5,0,1.5-0.9l0.7,0.1c-0.1,0.8-0.2,1.5-0.3,2.3c-0.1,0.8-0.1,1.5-0.1,2.3l-0.8,0.3    c-0.1-1-0.2-2.7-2.1-2.7h-4.6v15c0,2.2,1,2.4,2.3,2.4h0.5v0.9c-1.1,0-3.1-0.1-4.6-0.1c-1.7,0-3.7,0.1-4.8,0.1v-0.9h0.5    c1.6,0,2.3-0.1,2.3-2.4v-15.1H335.9L335.9,271.1z"/><path class="st3" d="M347.1,289.5c-1.1,0-3.1-0.1-4.6-0.1c-1.7,0-3.7,0.1-4.8,0.1h-0.1v-0.1v-1h0.1h0.5c1.6,0,2.2-0.1,2.2-2.2    l0-15h-4.5v-0.1V271h4.8v15.2c0,2.3-0.9,2.5-2.5,2.5h-0.4v0.6c1.1,0,3-0.1,4.7-0.1c1.5,0,3.4,0.1,4.5,0.1v-0.6h-0.4    c-1.4,0-2.5-0.3-2.5-2.6V271h4.8c1.9,0,2.1,1.6,2.2,2.7l0.6-0.2c0-0.7,0-1.5,0.1-2.2c0.1-0.7,0.2-1.5,0.3-2.2l-0.4-0.1    c-0.1,0.8-0.9,0.9-1.6,0.9h-14.6h-0.1c-0.7,0-1.4,0-1.6-0.8h-0.5c0,0.8-0.1,1.5-0.2,2.3c-0.1,0.8-0.2,1.5-0.3,2.3h0.6    c0.4-2,0.6-2.6,2.7-2.6v0.1v0.1c-2.1,0-2,0.4-2.5,2.5l0,0.1h-0.1h-1l0-0.1c0.1-0.8,0.3-1.6,0.3-2.4c0.1-0.8,0.2-1.6,0.2-2.4v-0.1    h0.1h0.8l0,0.1c0.2,0.7,0.7,0.7,1.4,0.7l0.1,0h14.6c0.8,0,1.3,0,1.4-0.8l0-0.1l0.1,0l0.8,0.1l0,0.1c-0.1,0.8-0.2,1.5-0.3,2.3    c-0.1,0.8-0.1,1.5-0.1,2.3v0.1l-0.1,0l-1,0.4l0-0.2c-0.1-1.1-0.2-2.6-2-2.6h-4.5v14.9c0,2.1,0.9,2.3,2.2,2.3h0.7v0.1v1H347.1    L347.1,289.5z"/><path class="st3" d="M353.2,288.5h0.4c1,0,2.1-0.1,2.1-1.6v-14.8c0-1.5-1.1-1.6-2.1-1.6h-0.4v-0.8c1.1,0,2.8,0.1,4.2,0.1    c1.4,0,3.1-0.1,4.4-0.1v0.8h-0.4c-1,0-2.1,0.1-2.1,1.6v14.8c0,1.5,1.1,1.6,2.1,1.6h0.4v0.9c-1.4,0-3.1-0.1-4.5-0.1    c-1.4,0-3.1,0.1-4.2,0.1V288.5L353.2,288.5z"/><path class="st3" d="M361.8,289.5c-1.4,0-3.1-0.1-4.5-0.1c-1.4,0-3,0.1-4.2,0.1H353v-0.1v-0.9v-0.1h0.1h0.4c1,0,2-0.1,2-1.5v-14.8    c0-1.4-0.9-1.5-2-1.5H353v-0.1v-1h0.1c1.1,0,2.8,0.1,4.2,0.1c1.4,0,3.1-0.1,4.4-0.1h0.1v0.1v1h-0.1h-0.4c-1,0-2,0.1-2,1.5v14.8    c0,1.4,0.9,1.5,2,1.5h0.5v0.1v1H361.8L361.8,289.5z M361.6,289.3L361.6,289.3v-0.6h-0.3c-1,0-2.2-0.2-2.2-1.7v-14.8    c0-1.6,1.2-1.7,2.2-1.7h0.3v-0.6c-1.3,0-2.9,0.1-4.3,0.1c-1.3,0-3-0.1-4.1-0.1v0.6h0.3c1,0,2.2,0.2,2.2,1.7v14.8    c0,1.6-1.2,1.7-2.2,1.7h-0.3v0.6c1.1,0,2.7-0.1,4-0.1C358.7,289.2,360.3,289.3,361.6,289.3L361.6,289.3z"/><path class="st3" d="M373,269.3c6,0,10.8,3.7,10.8,9.7c0,6.5-4.7,10.8-10.7,10.8c-6,0-10.6-4.1-10.6-10.1    C362.6,273.8,367.2,269.3,373,269.3L373,269.3z M373.5,288.6L373.5,288.6c5.5,0,6.4-4.8,6.4-9c0-4.1-2.2-9.1-6.9-9.1    c-4.9,0-6.4,4.4-6.4,8.2C366.6,283.7,368.9,288.6,373.5,288.6L373.5,288.6z"/><path class="st3" d="M362.5,279.7c0-5.9,4.6-10.5,10.5-10.5v0.1v0.1c-5.8,0-10.3,4.5-10.3,10.3c0,6,4.5,10,10.5,10    c6,0,10.5-4.3,10.6-10.7c0-5.9-4.7-9.6-10.7-9.6v-0.1v-0.1c6.1,0,10.9,3.8,10.9,9.9c0,6.6-4.7,10.9-10.8,10.9    C367.1,289.9,362.5,285.8,362.5,279.7L362.5,279.7L362.5,279.7z M366.4,278.7L366.4,278.7c0-3.8,1.5-8.3,6.5-8.3    c4.8,0,7,5.1,7,9.3c0,4.1-1,9.1-6.6,9.1v-0.1v-0.1c5.4,0,6.3-4.7,6.3-8.8c0-4.1-2.2-9-6.8-9c-4.8,0-6.3,4.3-6.3,8.1    c0,5,2.3,9.8,6.8,9.8v0.1v0.1C368.8,288.7,366.5,283.8,366.4,278.7L366.4,278.7z"/><path class="st3" d="M402.9,283.8L402.9,283.8l0.1-10.6c0-2.3-1.6-2.7-2.5-2.7h-0.6v-0.8c1.3,0,2.6,0.1,3.9,0.1    c1.2,0,2.3-0.1,3.5-0.1v0.8h-0.4c-1.2,0-2.5,0.2-2.5,3.6V287c0,1,0,2,0.2,2.9h-1.1l-14.5-16.2v11.6c0,2.5,0.5,3.3,2.7,3.3h0.5v0.9    c-1.2,0-2.4-0.1-3.6-0.1c-1.3,0-2.6,0.1-3.8,0.1v-0.9h0.4c2,0,2.5-1.3,2.5-3.6v-11.9c0-1.6-1.3-2.5-2.6-2.5h-0.4v-0.8    c1.1,0,2.2,0.1,3.2,0.1c0.8,0,1.7-0.1,2.5-0.1L402.9,283.8L402.9,283.8z"/><path class="st3" d="M404.5,289.9l-1.2,0l-14.3-16v11.3c0,2.5,0.4,3.2,2.5,3.2h0.6v0.1v1H392c-1.2,0-2.4-0.1-3.6-0.1    c-1.3,0-2.6,0.1-3.8,0.1h-0.1v-0.1v-1h0.1h0.4c1.9,0,2.4-1.2,2.4-3.5v-11.9c0-1.5-1.2-2.4-2.4-2.4h-0.5v-0.1v-1h0.1    c1.1,0,2.2,0.1,3.2,0.1c0.8,0,1.7-0.1,2.6-0.1l12.4,14v-10.4c0-2.2-1.5-2.5-2.3-2.5h-0.7v-0.1v-1h0.1c1.3,0,2.6,0.1,3.9,0.1    c1.2,0,2.3-0.1,3.5-0.1h0.1v0.1v1h-0.1h-0.4c-1.2,0-2.4,0.1-2.4,3.5V287c0,1,0,2,0.2,2.8l0,0.1H404.5L404.5,289.9z M403.5,289.7    L403.5,289.7h0.9c-0.1-0.8-0.1-1.8-0.1-2.7v-12.9c0-3.4,1.4-3.7,2.6-3.7h0.3v-0.6c-1.1,0-2.2,0.1-3.4,0.1c-1.3,0-2.5-0.1-3.8-0.1    v0.6h0.5c0.9,0,2.6,0.4,2.6,2.8l0,10.7l-0.1,0.1l-0.1,0.1l-12.6-14.2c-0.8,0-1.7,0.1-2.5,0.1c-1,0-2.1-0.1-3.1-0.1v0.6h0.2    c1.3,0,2.7,1,2.7,2.7V285c0,2.3-0.6,3.7-2.7,3.7l-0.3,0v0.6c1.2,0,2.5-0.1,3.7-0.1c1.2,0,2.3,0.1,3.5,0.1v-0.6h-0.4    c-2.2,0-2.8-1-2.8-3.4v-12L403.5,289.7L403.5,289.7z M402.9,283.8L402.9,283.8L402.9,283.8L402.9,283.8z M402.8,283.8L402.8,283.8    L402.8,283.8L402.8,283.8L402.8,283.8z"/><path class="st3" d="M411.8,285.3c-0.3,1-0.6,1.7-0.6,2.2c0,0.9,1.2,1,2.1,1h0.3v0.9c-1.1-0.1-2.3-0.1-3.4-0.1c-1,0-2,0.1-3,0.1    v-0.9h0.2c1.1,0,2-0.6,2.5-1.8l4.5-13c0.4-1,0.9-2.5,1-3.5c0.9-0.3,2-0.9,2.6-1.2c0.1,0,0.1-0.1,0.2-0.1c0.1,0,0.1,0,0.2,0.1    c0.1,0.2,0.2,0.5,0.3,0.7l5.2,14.8c0.3,1,0.7,2,1,2.9c0.3,0.8,0.9,1.1,1.9,1.1h0.2v0.9c-1.3-0.1-2.5-0.1-3.9-0.1    c-1.4,0-2.8,0.1-4.2,0.1v-0.9h0.3c0.6,0,1.8-0.1,1.8-0.8c0-0.4-0.3-1.1-0.6-2l-1.1-3.3h-6.4L411.8,285.3L411.8,285.3z M416,272.8    L416,272.8L416,272.8l-2.7,8h5.3L416,272.8z"/><path class="st3" d="M426.9,289.5c-1.3-0.1-2.5-0.1-3.9-0.1c-1.4,0-2.8,0.1-4.2,0.1l-0.1,0v-0.1v-1h0.1h0.3c0.7,0,1.6-0.2,1.6-0.7    c0-0.3-0.2-1.1-0.6-2l-1.1-3.2h-6.2l-0.9,2.9c-0.3,1-0.6,1.7-0.6,2.2c0,0.7,1.1,0.9,2,0.9h0.4v0.1v1l-0.1,0    c-1.1-0.1-2.3-0.1-3.4-0.1c-1,0-2,0.1-3,0.1l-0.1,0v-0.1v-1h0.1h0.2c1.1,0,1.9-0.6,2.3-1.8l4.5-13c0.4-1,0.9-2.5,1.1-3.6    c0.9-0.3,2-0.9,2.6-1.2c0.1,0,0.2-0.1,0.3-0.1c0.1,0,0.2,0,0.3,0.2c0.1,0.2,0.2,0.5,0.3,0.7l5.2,14.8c0.3,1,0.7,2,1,2.9    c0.3,0.7,0.8,1,1.7,1.1h0.3v0.1v1L426.9,289.5L426.9,289.5z M418.9,289.3L418.9,289.3c1.4-0.1,2.8-0.1,4.1-0.1    c1.3,0,2.5,0.1,3.8,0.1l0-0.6h0c-1,0-1.6-0.4-2-1.2c-0.4-0.9-0.7-1.9-1-2.9l-5.2-14.8c-0.1-0.2-0.2-0.5-0.2-0.7c0,0,0,0,0,0h-0.1    c-0.1,0-0.1,0-0.2,0c-0.5,0.3-1.7,0.9-2.5,1.1c-0.2,1.1-0.7,2.5-1.1,3.5l-4.5,13c-0.4,1.2-1.4,1.9-2.6,1.9h0v0.6    c1,0,1.9-0.1,2.9-0.1c1.1,0,2.2,0.1,3.3,0.1v-0.6h-0.2c-0.9,0-2.2-0.1-2.2-1.1c0-0.6,0.4-1.3,0.6-2.2l0.1,0l-0.1,0l0.9-3h6.6    l1.1,3.4c0.3,0.9,0.6,1.7,0.6,2.1c0,0.9-1.2,0.9-1.9,0.9h-0.2V289.3L418.9,289.3z M413.1,281L413.1,281l2.7-8.2h0.1h0.1v0.1l0,0    l0,0v-0.1h0.1l2.7,8.2H413.1z M413.4,280.7L413.4,280.7h4.9l-2.5-7.6L413.4,280.7L413.4,280.7z M415.8,272.9L415.8,272.9    L415.8,272.9L415.8,272.9z"/><path class="st3" d="M434,286.6c0,1.1,0.8,1.5,1.7,1.6c1.2,0.1,2.4,0.1,3.7-0.1c1.2-0.1,2.2-0.8,2.7-1.5c0.5-0.6,0.7-1.4,0.9-2    h0.8c-0.3,1.6-0.7,3.2-1,4.8c-2.5,0-5-0.1-7.5-0.1c-2.5,0-5,0.1-7.5,0.1v-0.9h0.4c1,0,2.1-0.1,2.1-1.9v-14.5    c0-1.5-1.1-1.6-2.1-1.6h-0.4v-0.8c1.5,0,3,0.1,4.5,0.1c1.4,0,2.9-0.1,4.3-0.1v0.8h-0.7c-1.1,0-1.9,0-1.9,1.5V286.6L434,286.6z"/><path class="st3" d="M442.8,289.5c-2.5,0-5-0.1-7.5-0.1c-2.5,0-5,0.1-7.5,0.1h-0.1v-0.1v-1h0.1h0.4c1,0,2-0.1,2-1.8v-14.5    c0-1.4-1-1.5-2-1.5h-0.5v-0.1v-1h0.1c1.5,0,3,0.1,4.5,0.1c1.4,0,2.8-0.1,4.3-0.1h0.1v0.1v1h-0.1h-0.7c-1.1,0-1.8,0-1.8,1.4v14.6    c0,1.1,0.7,1.3,1.6,1.5c0.5,0,1,0.1,1.6,0.1c0.7,0,1.4,0,2.1-0.1c1.2-0.1,2.1-0.8,2.6-1.5c0.4-0.6,0.7-1.4,0.9-2l0-0.1h0.1h1    l0,0.1c-0.3,1.6-0.7,3.2-1,4.8L442.8,289.5L442.8,289.5L442.8,289.5L442.8,289.5z M442.7,289.3L442.7,289.3c0.3-1.5,0.7-3,1-4.6    h-0.6c-0.2,0.6-0.4,1.4-0.9,2c-0.5,0.7-1.6,1.4-2.8,1.6c-0.7,0.1-1.5,0.1-2.2,0.1c-0.5,0-1.1,0-1.6-0.1c-0.9-0.1-1.8-0.5-1.8-1.7    V272c0-1.6,1-1.6,2-1.6h0.6v-0.6c-1.4,0-2.8,0.1-4.2,0.1c-1.5,0-2.9-0.1-4.3-0.1v0.6h0.3c1,0,2.2,0.2,2.2,1.7v14.5    c0,1.8-1.2,2-2.2,2H428v0.6c2.4,0,4.9-0.1,7.3-0.1C437.8,289.2,440.2,289.3,442.7,289.3L442.7,289.3z"/><path class="st3" d="M443.5,268.9c1.7,0,3,1.3,3,3c0,1.7-1.3,3-3,3s-3-1.3-3-3C440.5,270.2,441.8,268.9,443.5,268.9z M443.5,274.3    L443.5,274.3c1.3,0,2.4-1.1,2.4-2.4c0-1.3-1-2.4-2.4-2.4c-1.3,0-2.4,1.1-2.4,2.4C441.1,273.1,442.1,274.3,443.5,274.3z M442,273.4    L442,273.4v-0.1c0.4-0.1,0.4,0,0.4-0.3v-2.2c0-0.3,0-0.4-0.4-0.4v-0.2h1.5c0.5,0,1,0.2,1,0.8c0,0.4-0.3,0.8-0.7,0.9l0.5,0.7    c0.2,0.3,0.5,0.6,0.7,0.7v0.1h-0.6c-0.3,0-0.5-0.6-1.1-1.4H443v1c0,0.2,0.1,0.2,0.4,0.2v0.1H442L442,273.4z M443,271.9L443,271.9    h0.4c0.4,0,0.6-0.3,0.6-0.8c0-0.5-0.3-0.6-0.6-0.6H443V271.9z"/><path class="st1" d="M138.5,305.4c27,0.1,51.6-22,51.6-48.9c0-29.4-24.6-49.8-51.6-49.8h-23.2c-27.3,0-49.8,20.3-49.8,49.8    c0,26.9,22.5,49.1,49.8,48.9H138.5z"/><path class="st2" d="M115.4,210.7c-24.9,0-45.2,20.2-45.2,45.2c0,25,20.2,45.2,45.2,45.2c25,0,45.2-20.2,45.2-45.2    C160.6,231,140.4,210.7,115.4,210.7z M86.8,255.9L86.8,255.9c0-12.2,7.6-22.6,18.4-26.7v53.4C94.4,278.5,86.8,268.1,86.8,255.9z     M125.7,282.6L125.7,282.6v-53.5c10.7,4.1,18.4,14.5,18.4,26.7C144,268.1,136.4,278.5,125.7,282.6z"/><path class="st3" d="M206,227.9c0-4.7-2.4-4.4-4.8-4.4v-1.3c2,0.1,4.1,0.1,6.1,0.1c2.2,0,5.1-0.1,9-0.1c13.4,0,20.8,9,20.8,18.2    c0,5.1-3,18.1-21.4,18.1c-2.6,0-5.1-0.1-7.5-0.1c-2.3,0-4.6,0.1-7,0.1V257c3.1-0.3,4.6-0.4,4.8-3.9L206,227.9L206,227.9z     M211,252.2L211,252.2c0,4,2.9,4.5,5.4,4.5c11.2,0,14.9-8.5,14.9-16.2c0-9.7-6.2-16.7-16.2-16.7c-2.1,0-3.1,0.2-4.1,0.2V252.2    L211,252.2z"/><path class="st3" d="M238.9,257h1c1.5,0,2.5,0,2.5-1.7v-14.1c0-2.3-0.8-2.6-2.7-3.6v-0.8c2.4-0.7,5.3-1.7,5.6-1.9    c0.4-0.2,0.7-0.3,0.9-0.3c0.3,0,0.4,0.3,0.4,0.7v19.9c0,1.7,1.1,1.7,2.6,1.7h0.9v1.3c-1.8,0-3.6-0.1-5.4-0.1    c-1.9,0-3.7,0.1-5.7,0.1V257L238.9,257z M244.4,226.6L244.4,226.6c-1.4,0-2.5-1.2-2.5-2.6c0-1.3,1.2-2.5,2.5-2.5    c1.3,0,2.5,1.1,2.5,2.5C247,225.4,245.8,226.6,244.4,226.6z"/><path class="st3" d="M254.9,241.5c0-1.9-0.6-2.4-3-3.4v-1c2.2-0.7,4.4-1.4,6.8-2.5c0.2,0,0.3,0.1,0.3,0.5v3.4c3-2.1,5.5-3.9,9-3.9    c4.4,0,6,3.2,6,7.3v13.4c0,1.7,1.1,1.7,2.6,1.7h0.9v1.3c-1.8,0-3.6-0.1-5.5-0.1c-1.9,0-3.7,0.1-5.6,0.1V257h0.9    c1.5,0,2.5,0,2.5-1.7v-13.4c0-3-1.8-4.4-4.8-4.4c-1.7,0-4.3,1.3-6,2.5v15.4c0,1.7,1.1,1.7,2.6,1.7h0.9v1.3c-1.8,0-3.6-0.1-5.5-0.1    c-1.9,0-3.7,0.1-5.6,0.1V257h0.9c1.5,0,2.5,0,2.5-1.7V241.5L254.9,241.5z"/><path class="st3" d="M281.5,244c-0.1,0.5-0.1,1.2,0,3c0.3,4.9,3.5,9,7.6,9c2.9,0,5.1-1.6,7-3.5l0.7,0.7c-2.4,3.2-5.3,5.9-9.6,5.9    c-8.3,0-9.9-8-9.9-11.3c0-10.2,6.9-13.2,10.5-13.2c4.2,0,8.7,2.6,8.8,8.1c0,0.3,0,0.6,0,0.9l-0.5,0.3H281.5L281.5,244z     M290.7,242.4L290.7,242.4c1.3,0,1.4-0.7,1.4-1.3c0-2.6-1.6-4.8-4.5-4.8c-3.2,0-5.3,2.3-6,6.1H290.7L290.7,242.4z"/><path class="st3" d="M297.8,257h1.4c1.4,0,2.5,0,2.5-1.7v-14.6c0-1.6-1.9-1.9-2.7-2.3v-0.8c3.8-1.6,5.9-3,6.3-3    c0.3,0,0.5,0.2,0.5,0.7v4.7h0.1c1.3-2,3.5-5.3,6.6-5.3c1.3,0,3,0.9,3,2.8c0,1.4-1,2.7-2.4,2.7c-1.6,0-1.6-1.2-3.4-1.2    c-0.9,0-3.8,1.2-3.8,4.3v12.2c0,1.7,1,1.7,2.5,1.7h2.9v1.3c-2.9-0.1-5-0.1-7.3-0.1c-2.1,0-4.3,0.1-6.2,0.1V257L297.8,257z"/><path class="st3" d="M317.8,251.1c0.7,3.4,2.7,6.3,6.5,6.3c3.1,0,4.2-1.9,4.2-3.7c0-6.1-11.3-4.2-11.3-12.5c0-2.9,2.3-6.6,8-6.6    c1.7,0,3.9,0.5,5.9,1.5l0.4,5.3h-1.2c-0.5-3.3-2.3-5.1-5.7-5.1c-2.1,0-4,1.2-4,3.4c0,6.1,12,4.2,12,12.4c0,3.4-2.8,7.1-8.9,7.1    c-2.1,0-4.5-0.7-6.3-1.8l-0.6-6L317.8,251.1L317.8,251.1z"/><path class="st3" d="M379.5,231.5h-1.3c-1-6.1-5.3-8.5-11.1-8.5c-6,0-14.6,4-14.6,16.5c0,10.5,7.5,18,15.5,18    c5.1,0,9.4-3.5,10.4-9l1.2,0.3l-1.2,7.6c-2.2,1.4-8,2.8-11.5,2.8c-12.1,0-19.8-7.8-19.8-19.5c0-10.6,9.5-18.3,19.7-18.3    c4.2,0,8.3,1.4,12.2,2.8L379.5,231.5L379.5,231.5z"/><path class="st3" d="M381.4,257h1c1.5,0,2.5,0,2.5-1.7v-28.9c0-3.4-0.8-3.5-2.8-4.1v-0.8c2.1-0.7,4.3-1.6,5.3-2.2    c0.6-0.3,1-0.6,1.1-0.6c0.3,0,0.4,0.3,0.4,0.7v35.9c0,1.7,1.1,1.7,2.6,1.7h0.9v1.3c-1.8,0-3.6-0.1-5.4-0.1c-1.9,0-3.7,0.1-5.7,0.1    L381.4,257L381.4,257z"/><path class="st3" d="M414.7,255.5c0,0.9,0.6,1,1.4,1c0.6,0,1.4-0.1,2.1-0.1v1.1c-2.2,0.2-6.5,1.3-7.5,1.6l-0.3-0.2v-4.2    c-3.1,2.5-5.5,4.4-9.2,4.4c-2.8,0-5.7-1.8-5.7-6.2v-13.3c0-1.3-0.2-2.6-3.1-2.9v-1c1.9-0.1,6-0.4,6.7-0.4c0.6,0,0.6,0.4,0.6,1.5    v13.4c0,1.6,0,6,4.5,6c1.8,0,4.1-1.3,6.3-3.2v-14c0-1-2.5-1.6-4.4-2.1v-0.9c4.7-0.3,7.6-0.7,8.1-0.7c0.4,0,0.4,0.4,0.4,0.9    L414.7,255.5L414.7,255.5z"/><path class="st3" d="M425,238.4c2.1-1.8,4.9-3.7,7.7-3.7c6,0,9.7,5.2,9.7,10.9c0,6.8-5,13.6-12.4,13.6c-3.8,0-5.9-1.2-7.2-1.8    l-1.6,1.2l-1.1-0.6c0.5-3.1,0.7-6.1,0.7-9.2v-22.3c0-3.4-0.8-3.5-2.8-4v-0.8c2.1-0.7,4.3-1.6,5.3-2.2c0.6-0.3,1-0.6,1.1-0.6    c0.3,0,0.4,0.3,0.4,0.7V238.4L425,238.4L425,238.4z M425,252.5L425,252.5c0,2,1.9,5.3,5.3,5.3c5.6,0,7.9-5.5,7.9-10.1    c0-5.6-4.3-10.3-8.3-10.3c-1.9,0-3.5,1.2-4.9,2.4V252.5L425,252.5z"/><path class="st3" d="M201.1,288.5h0.4c1,0,2.1-0.1,2.1-1.6v-14.8c0-1.5-1.1-1.6-2.1-1.6h-0.4v-0.8c1.1,0,2.8,0.1,4.2,0.1    c1.4,0,3.1-0.1,4.4-0.1v0.8h-0.4c-1,0-2.1,0.1-2.1,1.6v14.8c0,1.5,1.1,1.6,2.1,1.6h0.4v0.9c-1.4,0-3.1-0.1-4.5-0.1    c-1.4,0-3.1,0.1-4.2,0.1V288.5L201.1,288.5z"/><path class="st3" d="M209.7,289.5c-1.4,0-3.1-0.1-4.5-0.1c-1.4,0-3,0.1-4.2,0.1H201v-0.1v-0.8v-0.1h0.1h0.4c1,0,2-0.1,2-1.5v-14.8    c0-1.4-0.9-1.5-2-1.5H201v-0.1v-1h0.1c1.1,0,2.8,0.1,4.2,0.1c1.4,0,3.1-0.1,4.4-0.1h0.1v0.1v1h-0.1h-0.4c-1,0-2,0.1-2,1.5v14.8    c0,1.4,0.9,1.5,2,1.5h0.5v0.1v1H209.7L209.7,289.5z M209.6,289.3L209.6,289.3v-0.6h-0.3c-1,0-2.2-0.2-2.2-1.7v-14.8    c0-1.6,1.2-1.7,2.2-1.7h0.3v-0.6c-1.3,0-2.9,0.1-4.3,0.1c-1.3,0-3-0.1-4.1-0.1v0.6h0.3c1,0,2.2,0.2,2.2,1.7v14.8    c0,1.6-1.2,1.7-2.2,1.7h-0.3v0.6c1.1,0,2.7-0.1,4-0.1C206.7,289.2,208.3,289.3,209.6,289.3L209.6,289.3z"/><path class="st3" d="M229.1,283.8L229.1,283.8l0.1-10.6c0-2.3-1.6-2.7-2.5-2.7h-0.6v-0.8c1.3,0,2.6,0.1,4,0.1    c1.2,0,2.3-0.1,3.5-0.1v0.8h-0.4c-1.2,0-2.5,0.2-2.5,3.6V287c0,1,0,2,0.2,2.9h-1.1l-14.5-16.2v11.6c0,2.5,0.5,3.3,2.7,3.3h0.5v0.9    c-1.2,0-2.4-0.1-3.6-0.1c-1.3,0-2.6,0.1-3.8,0.1v-0.9h0.4c1.9,0,2.5-1.3,2.5-3.6v-11.9c0-1.6-1.3-2.5-2.6-2.5h-0.4v-0.8    c1.1,0,2.2,0.1,3.2,0.1c0.8,0,1.7-0.1,2.5-0.1L229.1,283.8L229.1,283.8z"/><path class="st3" d="M230.8,289.9l-1.2,0l-14.3-16v11.3c0,2.5,0.4,3.2,2.5,3.2h0.6v0.1v1h-0.1c-1.2,0-2.4-0.1-3.6-0.1    c-1.3,0-2.6,0.1-3.8,0.1h-0.1v-0.1v-1h0.1h0.4c1.9,0,2.4-1.2,2.4-3.5v-11.9c0-1.5-1.2-2.4-2.4-2.4h-0.5v-0.1v-1h0.1    c1.1,0,2.2,0.1,3.2,0.1c0.8,0,1.7-0.1,2.6-0.1l12.4,14v-10.4c0-2.2-1.5-2.5-2.3-2.5H226v-0.1v-1h0.1c1.3,0,2.6,0.1,4,0.1    c1.1,0,2.3-0.1,3.5-0.1h0.1v0.1v1h-0.1h-0.4c-1.2,0-2.4,0.1-2.4,3.5V287c0,1,0,2,0.2,2.8l0,0.1L230.8,289.9L230.8,289.9z     M229.7,289.7L229.7,289.7h0.9c-0.1-0.8-0.1-1.8-0.1-2.7v-12.9c0-3.4,1.4-3.7,2.6-3.7h0.3v-0.6c-1.1,0-2.2,0.1-3.4,0.1    c-1.3,0-2.5-0.1-3.8-0.1l0,0.6h0.5c0.9,0,2.6,0.4,2.6,2.8l0,10.7l-0.1,0.1l-0.1,0.1l-12.6-14.2c-0.8,0-1.7,0.1-2.5,0.1    c-1,0-2.1-0.1-3.1-0.1l0,0.6h0.2c1.3,0,2.7,1,2.7,2.7V285c0,2.3-0.6,3.7-2.7,3.7l-0.3,0v0.6c1.2,0,2.5-0.1,3.7-0.1    c1.2,0,2.4,0.1,3.5,0.1v-0.6h-0.4c-2.2,0-2.8-1-2.8-3.4v-12L229.7,289.7L229.7,289.7z M229.1,283.8L229.1,283.8L229.1,283.8    L229.1,283.8z M229.1,283.8L229.1,283.8L229.1,283.8L229.1,283.8L229.1,283.8z"/><path class="st3" d="M237.8,271.1c-2.1,0-2.2,0.5-2.6,2.6h-0.8c0.1-0.8,0.3-1.6,0.3-2.4c0.1-0.8,0.2-1.6,0.2-2.4h0.7    c0.2,0.8,0.9,0.8,1.7,0.8h14.6c0.8,0,1.5,0,1.5-0.9l0.7,0.1c-0.1,0.8-0.2,1.5-0.3,2.3c-0.1,0.8-0.1,1.5-0.1,2.3l-0.8,0.3    c-0.1-1-0.2-2.7-2.1-2.7H246v15c0,2.2,1,2.4,2.3,2.4h0.5v0.9c-1.1,0-3.1-0.1-4.6-0.1c-1.7,0-3.7,0.1-4.8,0.1v-0.9h0.5    c1.6,0,2.3-0.1,2.3-2.4v-15.1H237.8L237.8,271.1z"/><path class="st3" d="M248.9,289.5c-1.1,0-3.1-0.1-4.6-0.1c-1.7,0-3.7,0.1-4.8,0.1h-0.1v-0.1v-1h0.1h0.5c1.6,0,2.2-0.1,2.2-2.2v-15    h-4.5v-0.1V271h4.8v15.2c0,2.3-0.9,2.5-2.5,2.5h-0.4v0.6c1.1,0,3-0.1,4.7-0.1c1.5,0,3.4,0.1,4.5,0.1v-0.6h-0.4    c-1.4,0-2.5-0.3-2.5-2.6V271h4.8c1.9,0,2.1,1.6,2.2,2.7l0.6-0.2c0-0.7,0-1.5,0.1-2.2c0.1-0.7,0.2-1.4,0.3-2.2l-0.4-0.1    c-0.1,0.8-0.9,0.9-1.6,0.9h-14.6H237c-0.7,0-1.4,0-1.6-0.8h-0.5c0,0.8-0.1,1.5-0.2,2.3c-0.1,0.8-0.2,1.5-0.3,2.3h0.6    c0.4-2,0.6-2.6,2.7-2.6v0.1v0.1c-2.1,0-2,0.4-2.5,2.5l0,0.1h-0.1h-1l0-0.1c0.1-0.8,0.3-1.6,0.3-2.4c0.1-0.8,0.2-1.6,0.2-2.4v-0.1    h0.1h0.8l0,0.1c0.2,0.7,0.7,0.7,1.4,0.7h0.1h14.6c0.8,0,1.4,0,1.4-0.8l0-0.1l0.1,0l0.8,0.1l0,0.1c-0.1,0.8-0.2,1.5-0.3,2.3    c-0.1,0.8-0.1,1.5-0.1,2.3v0.1l-0.1,0l-1,0.4l0-0.2c-0.1-1.1-0.2-2.6-2-2.6h-4.5v14.9c0,2.1,0.9,2.3,2.2,2.3h0.7v0.1v1H248.9    L248.9,289.5z"/><path class="st3" d="M254.9,288.5h0.4c1,0,2.1-0.1,2.1-1.6v-14.8c0-1.5-1.1-1.6-2.1-1.6h-0.4v-0.8c1.7,0,4.7,0.1,7,0.1    c2.4,0,5.3-0.1,7.2-0.1c0,1.2,0,3.1,0.1,4.3l-0.9,0.2c-0.1-1.8-0.5-3.3-3.4-3.3H261v7.4h3.4c1.7,0,2.1-1,2.2-2.5h0.8    c-0.1,1.1-0.1,2.2-0.1,3.3c0,1.1,0,2.1,0.1,3.2l-0.8,0.2c-0.2-1.7-0.3-2.8-2.2-2.8H261v6.6c0,1.8,1.6,1.8,3.4,1.8    c3.4,0,4.9-0.2,5.7-3.4l0.8,0.2c-0.4,1.5-0.7,3-1,4.5c-1.8,0-5.1-0.1-7.6-0.1c-2.5,0-5.9,0.1-7.5,0.1V288.5L254.9,288.5z"/><path class="st3" d="M270,289.5c-1.8,0-5.1-0.1-7.6-0.1c-2.5,0-5.9,0.1-7.5,0.1h-0.1v-0.1v-0.9v-0.1h0.1h0.4c1,0,2-0.1,2-1.5    v-14.8c0-1.4-0.9-1.5-2-1.5h-0.5v-0.1v-1h0.1c1.7,0,4.7,0.1,7,0.1c2.4,0,5.3-0.1,7.2-0.1h0.1l0,0.1c0,0.4,0,0.9,0,1.5    c0,1,0,2,0.1,2.8l0,0.1l-0.1,0l-1,0.3l0-0.1c-0.2-1.8-0.4-3.2-3.3-3.2h-3.8l0,7.2h3.2c1.6,0,1.9-0.8,2.1-2.4l0-0.1h0.1h1l0,0.1    c-0.1,1.1-0.1,2.2-0.1,3.3c0,1.1,0,2.1,0.1,3.2l0,0.1l-0.1,0l-1,0.2l0-0.1c-0.2-1.7-0.2-2.7-2.1-2.7l-3.3,0v6.5    c0,1.7,1.5,1.7,3.3,1.7c3.4,0,4.8-0.2,5.6-3.4l0-0.1l0.1,0l0.9,0.2l0,0.1c-0.4,1.5-0.7,3-1,4.5L270,289.5L270,289.5L270,289.5z     M269.9,289.3L269.9,289.3c0.2-1.4,0.6-2.9,0.9-4.3l-0.6-0.1c-0.8,3.2-2.5,3.4-5.8,3.4c-1.8,0-3.6,0-3.6-2v-6.7h3.5    c2,0,2.2,1.2,2.3,2.8l0.6-0.1c-0.1-1-0.1-2.1-0.1-3.1c0-1.1,0-2.1,0.1-3.2h-0.6c-0.2,1.5-0.6,2.5-2.3,2.5h-3.5v-7.6h4.1    c2.9,0,3.4,1.5,3.5,3.3l0.6-0.2c0-0.8-0.1-1.8-0.1-2.8c0-0.5,0-0.9,0-1.3c-1.9,0-4.8,0.1-7.1,0.1c-2.3,0-5.2-0.1-6.9-0.1v0.6h0.3    c1,0,2.2,0.2,2.2,1.7v14.8c0,1.6-1.2,1.7-2.2,1.7H255v0.6c1.6,0,4.9-0.1,7.4-0.1C264.9,289.2,268,289.3,269.9,289.3L269.9,289.3z"/><path class="st3" d="M274.7,272.7c0-2.1-1.1-2.1-2-2.1h-0.5v-0.8c0.9,0,2.7,0.1,4.4,0.1c1.7,0,3.1-0.1,4.5-0.1c3.6,0,6.7,1,6.7,5    c0,2.5-1.7,4.1-3.9,5l4.8,7.2c0.8,1.2,1.4,1.5,2.7,1.7v0.9c-0.9,0-1.8-0.1-2.8-0.1c-0.9,0-1.8,0.1-2.7,0.1c-2.2-2.9-4-5.9-5.9-9.2    h-1.9v6c0,2.2,1,2.3,2.3,2.3h0.5v0.9c-1.6,0-3.2-0.1-4.9-0.1c-1.4,0-2.7,0.1-4.1,0.1v-0.9h0.5c1,0,2-0.5,2-1.5V272.7L274.7,272.7z     M278.4,279.2L278.4,279.2h1.4c2.8,0,4.3-1.1,4.3-4.4c0-2.5-1.6-4.1-4.1-4.1c-0.8,0-1.2,0.1-1.6,0.1V279.2L278.4,279.2z"/><path class="st3" d="M291.5,289.5c-0.9,0-1.8-0.1-2.8-0.1c-0.9,0-1.8,0.1-2.7,0.1c-2.2-2.8-4-5.9-5.8-9.1h-1.7v5.9    c0,2.1,0.9,2.1,2.2,2.1h0.6v0.1v1h-0.1c-1.6,0-3.3-0.1-4.9-0.1c-1.3,0-2.7,0.1-4.1,0.1h-0.1v-0.1v-1h0.1h0.5c1,0,1.9-0.4,1.9-1.4    v-14.4c0-2-1-2-1.9-2h-0.6v-0.1v-1h0.1c0.9,0,2.7,0.1,4.4,0.1c1.7,0,3-0.1,4.5-0.1c3.6,0,6.8,1,6.8,5.1c0,2.6-1.7,4.1-3.9,5    l4.7,7.1c0.8,1.2,1.3,1.5,2.7,1.6l0.1,0v0.1v1H291.5L291.5,289.5z M278.4,280.1L278.4,280.1h1.9l0,0.1c1.8,3.2,3.7,6.3,5.8,9.1    c0.9,0,1.8-0.1,2.6-0.1c0.9,0,1.8,0.1,2.7,0.1v-0.6c-1.3-0.2-1.9-0.6-2.7-1.7l-4.9-7.4l0.1-0.1c2.2-0.9,3.8-2.4,3.8-4.9    c0-3.9-3-4.8-6.6-4.8c-1.5,0-2.8,0.1-4.5,0.1c-1.7,0-3.3-0.1-4.3-0.1v0.6h0.4c0.9,0,2.1,0.1,2.1,2.3V287c0,1.1-1.1,1.7-2.1,1.7    h-0.4v0.6c1.4,0,2.6-0.1,4-0.1c1.6,0,3.2,0.1,4.7,0.1v-0.6h-0.4c-1.3,0-2.4-0.2-2.4-2.4v-6.2H278.4L278.4,280.1z M278.4,279.3    L278.4,279.3h-0.1v-8.6l0.1,0c0.4,0,0.8-0.1,1.6-0.1c2.6,0,4.2,1.7,4.3,4.2c0,3.4-1.6,4.5-4.5,4.5H278.4L278.4,279.3z     M279.7,279.1L279.7,279.1c2.8,0,4.2-1,4.2-4.3c0-2.5-1.5-4-4-4c-0.8,0-1.1,0.1-1.5,0.1v8.2H279.7L279.7,279.1z"/><path class="st3" d="M310.7,283.8L310.7,283.8l0.1-10.6c0-2.3-1.6-2.7-2.5-2.7h-0.6v-0.8c1.3,0,2.6,0.1,4,0.1    c1.2,0,2.3-0.1,3.5-0.1v0.8h-0.4c-1.2,0-2.5,0.2-2.5,3.6V287c0,1,0,2,0.2,2.9h-1.1l-14.5-16.2v11.6c0,2.5,0.5,3.3,2.7,3.3h0.5v0.9    c-1.2,0-2.4-0.1-3.6-0.1c-1.3,0-2.6,0.1-3.8,0.1v-0.9h0.4c2,0,2.5-1.3,2.5-3.6v-11.9c0-1.6-1.3-2.5-2.6-2.5h-0.4v-0.8    c1.1,0,2.2,0.1,3.2,0.1c0.8,0,1.7-0.1,2.5-0.1L310.7,283.8L310.7,283.8z"/><path class="st3" d="M312.3,289.9l-1.2,0l-14.3-16v11.3c0,2.5,0.4,3.2,2.5,3.2h0.6v0.1v1h-0.1c-1.2,0-2.4-0.1-3.6-0.1    c-1.3,0-2.6,0.1-3.8,0.1h-0.1v-0.1v-1h0.1h0.4c1.9,0,2.4-1.2,2.4-3.5v-11.9c0-1.5-1.2-2.4-2.4-2.4h-0.5v-0.1v-1h0.1    c1.1,0,2.2,0.1,3.2,0.1c0.8,0,1.6-0.1,2.6-0.1l12.4,14v-10.4c0-2.2-1.5-2.5-2.3-2.5h-0.7v-0.1v-1h0.1c1.3,0,2.6,0.1,4,0.1    c1.2,0,2.3-0.1,3.5-0.1h0.1v0.1v1h-0.1h-0.4c-1.2,0-2.4,0.1-2.4,3.5V287c0,1,0,2,0.2,2.8l0,0.1H312.3L312.3,289.9z M311.3,289.7    L311.3,289.7h0.9c-0.1-0.8-0.2-1.8-0.2-2.7v-12.9c0-3.4,1.4-3.7,2.6-3.7h0.3v-0.6c-1.1,0-2.2,0.1-3.3,0.1c-1.3,0-2.6-0.1-3.8-0.1    v0.6h0.5c0.9,0,2.6,0.4,2.6,2.8l0,10.7l-0.1,0.1l-0.1,0.1l-12.6-14.2c-0.8,0-1.7,0.1-2.5,0.1c-1,0-2.1-0.1-3.1-0.1v0.6h0.3    c1.3,0,2.7,1,2.7,2.7v11.9c0,2.3-0.6,3.7-2.7,3.7l-0.3,0v0.6c1.2,0,2.5-0.1,3.7-0.1c1.2,0,2.4,0.1,3.5,0.1v-0.6h-0.4    c-2.2,0-2.8-1-2.8-3.4v-12L311.3,289.7L311.3,289.7z M310.7,283.8L310.7,283.8L310.7,283.8L310.7,283.8z M310.6,283.8L310.6,283.8    L310.6,283.8L310.6,283.8L310.6,283.8z"/><path class="st3" d="M319.6,285.3c-0.3,1-0.6,1.7-0.6,2.2c0,0.9,1.2,1,2.1,1h0.3v0.9c-1.1-0.1-2.3-0.1-3.4-0.1c-1,0-2,0.1-3,0.1    v-0.9h0.2c1.1,0,2-0.6,2.5-1.8l4.5-13c0.4-1,0.9-2.5,1-3.5c0.9-0.3,2-0.9,2.6-1.2c0.1,0,0.1-0.1,0.2-0.1c0.1,0,0.1,0,0.2,0.1    c0.1,0.2,0.2,0.5,0.3,0.7l5.2,14.8c0.3,1,0.7,2,1,2.9c0.3,0.8,0.9,1.1,1.9,1.1h0.2v0.9c-1.3-0.1-2.5-0.1-3.9-0.1    c-1.4,0-2.8,0.1-4.2,0.1v-0.9h0.3c0.6,0,1.8-0.1,1.8-0.8c0-0.4-0.3-1.1-0.6-2l-1.1-3.3h-6.4L319.6,285.3L319.6,285.3z     M323.8,272.8L323.8,272.8L323.8,272.8l-2.7,8h5.3L323.8,272.8z"/><path class="st3" d="M334.7,289.5c-1.3-0.1-2.5-0.1-3.9-0.1c-1.4,0-2.8,0.1-4.2,0.1l-0.1,0v-0.1v-1h0.1h0.3c0.7,0,1.6-0.1,1.6-0.7    c0-0.3-0.2-1.1-0.6-2l-1.1-3.2h-6.2l-0.9,2.9c-0.3,1-0.6,1.7-0.6,2.2c0,0.7,1.1,0.9,2,0.9h0.4v0.1v1l-0.1,0    c-1.1-0.1-2.3-0.1-3.4-0.1c-1,0-2,0.1-3,0.1l-0.1,0v-0.1v-1h0.1h0.2c1.1,0,1.9-0.6,2.3-1.7l4.5-13c0.4-1,0.9-2.5,1.1-3.6    c0.9-0.3,2-0.9,2.6-1.2c0.1,0,0.2-0.1,0.3-0.1c0.1,0,0.2,0,0.3,0.2c0.1,0.2,0.2,0.5,0.3,0.7l5.2,14.8c0.3,1,0.7,2,1,2.9    c0.3,0.8,0.8,1.1,1.8,1.1h0.3v0.1v1L334.7,289.5L334.7,289.5z M326.7,289.3L326.7,289.3c1.4,0,2.8-0.1,4.1-0.1    c1.3,0,2.5,0.1,3.8,0.1v-0.6h0c-1,0-1.6-0.4-2-1.2c-0.4-0.9-0.7-1.9-1-2.9l-5.2-14.8c-0.1-0.2-0.2-0.5-0.2-0.7c0,0,0,0,0,0H326    c-0.1,0-0.1,0-0.2,0c-0.5,0.4-1.7,0.9-2.5,1.1c-0.2,1.1-0.7,2.5-1,3.5l-4.5,13c-0.4,1.2-1.4,1.9-2.6,1.9h0v0.6    c1,0,1.9-0.1,2.9-0.1c1.1,0,2.2,0.1,3.3,0.1v-0.6h-0.2c-0.9,0-2.2-0.1-2.2-1.1c0-0.6,0.3-1.3,0.6-2.2l0.1,0l-0.1,0l0.9-3h6.6    l1.1,3.4c0.3,0.9,0.6,1.7,0.6,2.1c0,0.9-1.2,0.9-1.9,0.9h-0.2V289.3L326.7,289.3z M320.9,281L320.9,281l2.7-8.2h0.1h0.1v0.1l0,0    l0,0v-0.1h0.1l2.7,8.2H320.9z M321.2,280.7L321.2,280.7h4.9l-2.5-7.6L321.2,280.7z M323.6,272.9L323.6,272.9L323.6,272.9    L323.6,272.9z"/><path class="st3" d="M335.9,271.1c-2.1,0-2.2,0.5-2.6,2.6h-0.8c0.1-0.8,0.3-1.6,0.3-2.4c0.1-0.8,0.2-1.6,0.2-2.4h0.7    c0.2,0.8,0.9,0.8,1.7,0.8h14.6c0.8,0,1.5,0,1.5-0.9l0.7,0.1c-0.1,0.8-0.2,1.5-0.3,2.3c-0.1,0.8-0.1,1.5-0.1,2.3l-0.8,0.3    c-0.1-1-0.2-2.7-2.1-2.7h-4.6v15c0,2.2,1,2.4,2.3,2.4h0.5v0.9c-1.1,0-3.1-0.1-4.6-0.1c-1.7,0-3.7,0.1-4.8,0.1v-0.9h0.5    c1.6,0,2.3-0.1,2.3-2.4v-15.1H335.9L335.9,271.1z"/><path class="st3" d="M347.1,289.5c-1.1,0-3.1-0.1-4.6-0.1c-1.7,0-3.7,0.1-4.8,0.1h-0.1v-0.1v-1h0.1h0.5c1.6,0,2.2-0.1,2.2-2.2    l0-15h-4.5v-0.1V271h4.8v15.2c0,2.3-0.9,2.5-2.5,2.5h-0.4v0.6c1.1,0,3-0.1,4.7-0.1c1.5,0,3.4,0.1,4.5,0.1v-0.6h-0.4    c-1.4,0-2.5-0.3-2.5-2.6V271h4.8c1.9,0,2.1,1.6,2.2,2.7l0.6-0.2c0-0.7,0-1.5,0.1-2.2c0.1-0.7,0.2-1.5,0.3-2.2l-0.4-0.1    c-0.1,0.8-0.9,0.9-1.6,0.9h-14.6h-0.1c-0.7,0-1.4,0-1.6-0.8h-0.5c0,0.8-0.1,1.5-0.2,2.3c-0.1,0.8-0.2,1.5-0.3,2.3h0.6    c0.4-2,0.6-2.6,2.7-2.6v0.1v0.1c-2.1,0-2,0.4-2.5,2.5l0,0.1h-0.1h-1l0-0.1c0.1-0.8,0.3-1.6,0.3-2.4c0.1-0.8,0.2-1.6,0.2-2.4v-0.1    h0.1h0.8l0,0.1c0.2,0.7,0.7,0.7,1.4,0.7l0.1,0h14.6c0.8,0,1.3,0,1.4-0.8l0-0.1l0.1,0l0.8,0.1l0,0.1c-0.1,0.8-0.2,1.5-0.3,2.3    c-0.1,0.8-0.1,1.5-0.1,2.3v0.1l-0.1,0l-1,0.4l0-0.2c-0.1-1.1-0.2-2.6-2-2.6h-4.5v14.9c0,2.1,0.9,2.3,2.2,2.3h0.7v0.1v1H347.1    L347.1,289.5z"/><path class="st3" d="M353.2,288.5h0.4c1,0,2.1-0.1,2.1-1.6v-14.8c0-1.5-1.1-1.6-2.1-1.6h-0.4v-0.8c1.1,0,2.8,0.1,4.2,0.1    c1.4,0,3.1-0.1,4.4-0.1v0.8h-0.4c-1,0-2.1,0.1-2.1,1.6v14.8c0,1.5,1.1,1.6,2.1,1.6h0.4v0.9c-1.4,0-3.1-0.1-4.5-0.1    c-1.4,0-3.1,0.1-4.2,0.1V288.5L353.2,288.5z"/><path class="st3" d="M361.8,289.5c-1.4,0-3.1-0.1-4.5-0.1c-1.4,0-3,0.1-4.2,0.1H353v-0.1v-0.9v-0.1h0.1h0.4c1,0,2-0.1,2-1.5v-14.8    c0-1.4-0.9-1.5-2-1.5H353v-0.1v-1h0.1c1.1,0,2.8,0.1,4.2,0.1c1.4,0,3.1-0.1,4.4-0.1h0.1v0.1v1h-0.1h-0.4c-1,0-2,0.1-2,1.5v14.8    c0,1.4,0.9,1.5,2,1.5h0.5v0.1v1H361.8L361.8,289.5z M361.6,289.3L361.6,289.3v-0.6h-0.3c-1,0-2.2-0.2-2.2-1.7v-14.8    c0-1.6,1.2-1.7,2.2-1.7h0.3v-0.6c-1.3,0-2.9,0.1-4.3,0.1c-1.3,0-3-0.1-4.1-0.1v0.6h0.3c1,0,2.2,0.2,2.2,1.7v14.8    c0,1.6-1.2,1.7-2.2,1.7h-0.3v0.6c1.1,0,2.7-0.1,4-0.1C358.7,289.2,360.3,289.3,361.6,289.3L361.6,289.3z"/><path class="st3" d="M373,269.3c6,0,10.8,3.7,10.8,9.7c0,6.5-4.7,10.8-10.7,10.8c-6,0-10.6-4.1-10.6-10.1    C362.6,273.8,367.2,269.3,373,269.3L373,269.3z M373.5,288.6L373.5,288.6c5.5,0,6.4-4.8,6.4-9c0-4.1-2.2-9.1-6.9-9.1    c-4.9,0-6.4,4.4-6.4,8.2C366.6,283.7,368.9,288.6,373.5,288.6L373.5,288.6z"/><path class="st3" d="M362.5,279.7c0-5.9,4.6-10.5,10.5-10.5v0.1v0.1c-5.8,0-10.3,4.5-10.3,10.3c0,6,4.5,10,10.5,10    c6,0,10.5-4.3,10.6-10.7c0-5.9-4.7-9.6-10.7-9.6v-0.1v-0.1c6.1,0,10.9,3.8,10.9,9.9c0,6.6-4.7,10.9-10.8,10.9    C367.1,289.9,362.5,285.8,362.5,279.7L362.5,279.7L362.5,279.7z M366.4,278.7L366.4,278.7c0-3.8,1.5-8.3,6.5-8.3    c4.8,0,7,5.1,7,9.3c0,4.1-1,9.1-6.6,9.1v-0.1v-0.1c5.4,0,6.3-4.7,6.3-8.8c0-4.1-2.2-9-6.8-9c-4.8,0-6.3,4.3-6.3,8.1    c0,5,2.3,9.8,6.8,9.8v0.1v0.1C368.8,288.7,366.5,283.8,366.4,278.7L366.4,278.7z"/><path class="st3" d="M402.9,283.8L402.9,283.8l0.1-10.6c0-2.3-1.6-2.7-2.5-2.7h-0.6v-0.8c1.3,0,2.6,0.1,3.9,0.1    c1.2,0,2.3-0.1,3.5-0.1v0.8h-0.4c-1.2,0-2.5,0.2-2.5,3.6V287c0,1,0,2,0.2,2.9h-1.1l-14.5-16.2v11.6c0,2.5,0.5,3.3,2.7,3.3h0.5v0.9    c-1.2,0-2.4-0.1-3.6-0.1c-1.3,0-2.6,0.1-3.8,0.1v-0.9h0.4c2,0,2.5-1.3,2.5-3.6v-11.9c0-1.6-1.3-2.5-2.6-2.5h-0.4v-0.8    c1.1,0,2.2,0.1,3.2,0.1c0.8,0,1.7-0.1,2.5-0.1L402.9,283.8L402.9,283.8z"/><path class="st3" d="M404.5,289.9l-1.2,0l-14.3-16v11.3c0,2.5,0.4,3.2,2.5,3.2h0.6v0.1v1H392c-1.2,0-2.4-0.1-3.6-0.1    c-1.3,0-2.6,0.1-3.8,0.1h-0.1v-0.1v-1h0.1h0.4c1.9,0,2.4-1.2,2.4-3.5v-11.9c0-1.5-1.2-2.4-2.4-2.4h-0.5v-0.1v-1h0.1    c1.1,0,2.2,0.1,3.2,0.1c0.8,0,1.7-0.1,2.6-0.1l12.4,14v-10.4c0-2.2-1.5-2.5-2.3-2.5h-0.7v-0.1v-1h0.1c1.3,0,2.6,0.1,3.9,0.1    c1.2,0,2.3-0.1,3.5-0.1h0.1v0.1v1h-0.1h-0.4c-1.2,0-2.4,0.1-2.4,3.5V287c0,1,0,2,0.2,2.8l0,0.1H404.5L404.5,289.9z M403.5,289.7    L403.5,289.7h0.9c-0.1-0.8-0.1-1.8-0.1-2.7v-12.9c0-3.4,1.4-3.7,2.6-3.7h0.3v-0.6c-1.1,0-2.2,0.1-3.4,0.1c-1.3,0-2.5-0.1-3.8-0.1    v0.6h0.5c0.9,0,2.6,0.4,2.6,2.8l0,10.7l-0.1,0.1l-0.1,0.1l-12.6-14.2c-0.8,0-1.7,0.1-2.5,0.1c-1,0-2.1-0.1-3.1-0.1v0.6h0.2    c1.3,0,2.7,1,2.7,2.7V285c0,2.3-0.6,3.7-2.7,3.7l-0.3,0v0.6c1.2,0,2.5-0.1,3.7-0.1c1.2,0,2.3,0.1,3.5,0.1v-0.6h-0.4    c-2.2,0-2.8-1-2.8-3.4v-12L403.5,289.7L403.5,289.7z M402.9,283.8L402.9,283.8L402.9,283.8L402.9,283.8z M402.8,283.8L402.8,283.8    L402.8,283.8L402.8,283.8L402.8,283.8z"/><path class="st3" d="M411.8,285.3c-0.3,1-0.6,1.7-0.6,2.2c0,0.9,1.2,1,2.1,1h0.3v0.9c-1.1-0.1-2.3-0.1-3.4-0.1c-1,0-2,0.1-3,0.1    v-0.9h0.2c1.1,0,2-0.6,2.5-1.8l4.5-13c0.4-1,0.9-2.5,1-3.5c0.9-0.3,2-0.9,2.6-1.2c0.1,0,0.1-0.1,0.2-0.1c0.1,0,0.1,0,0.2,0.1    c0.1,0.2,0.2,0.5,0.3,0.7l5.2,14.8c0.3,1,0.7,2,1,2.9c0.3,0.8,0.9,1.1,1.9,1.1h0.2v0.9c-1.3-0.1-2.5-0.1-3.9-0.1    c-1.4,0-2.8,0.1-4.2,0.1v-0.9h0.3c0.6,0,1.8-0.1,1.8-0.8c0-0.4-0.3-1.1-0.6-2l-1.1-3.3h-6.4L411.8,285.3L411.8,285.3z M416,272.8    L416,272.8L416,272.8l-2.7,8h5.3L416,272.8z"/><path class="st3" d="M426.9,289.5c-1.3-0.1-2.5-0.1-3.9-0.1c-1.4,0-2.8,0.1-4.2,0.1l-0.1,0v-0.1v-1h0.1h0.3c0.7,0,1.6-0.2,1.6-0.7    c0-0.3-0.2-1.1-0.6-2l-1.1-3.2h-6.2l-0.9,2.9c-0.3,1-0.6,1.7-0.6,2.2c0,0.7,1.1,0.9,2,0.9h0.4v0.1v1l-0.1,0    c-1.1-0.1-2.3-0.1-3.4-0.1c-1,0-2,0.1-3,0.1l-0.1,0v-0.1v-1h0.1h0.2c1.1,0,1.9-0.6,2.3-1.8l4.5-13c0.4-1,0.9-2.5,1.1-3.6    c0.9-0.3,2-0.9,2.6-1.2c0.1,0,0.2-0.1,0.3-0.1c0.1,0,0.2,0,0.3,0.2c0.1,0.2,0.2,0.5,0.3,0.7l5.2,14.8c0.3,1,0.7,2,1,2.9    c0.3,0.7,0.8,1,1.7,1.1h0.3v0.1v1L426.9,289.5L426.9,289.5z M418.9,289.3L418.9,289.3c1.4-0.1,2.8-0.1,4.1-0.1    c1.3,0,2.5,0.1,3.8,0.1l0-0.6h0c-1,0-1.6-0.4-2-1.2c-0.4-0.9-0.7-1.9-1-2.9l-5.2-14.8c-0.1-0.2-0.2-0.5-0.2-0.7c0,0,0,0,0,0h-0.1    c-0.1,0-0.1,0-0.2,0c-0.5,0.3-1.7,0.9-2.5,1.1c-0.2,1.1-0.7,2.5-1.1,3.5l-4.5,13c-0.4,1.2-1.4,1.9-2.6,1.9h0v0.6    c1,0,1.9-0.1,2.9-0.1c1.1,0,2.2,0.1,3.3,0.1v-0.6h-0.2c-0.9,0-2.2-0.1-2.2-1.1c0-0.6,0.4-1.3,0.6-2.2l0.1,0l-0.1,0l0.9-3h6.6    l1.1,3.4c0.3,0.9,0.6,1.7,0.6,2.1c0,0.9-1.2,0.9-1.9,0.9h-0.2V289.3L418.9,289.3z M413.1,281L413.1,281l2.7-8.2h0.1h0.1v0.1l0,0    l0,0v-0.1h0.1l2.7,8.2H413.1z M413.4,280.7L413.4,280.7h4.9l-2.5-7.6L413.4,280.7L413.4,280.7z M415.8,272.9L415.8,272.9    L415.8,272.9L415.8,272.9z"/><path class="st3" d="M434,286.6c0,1.1,0.8,1.5,1.7,1.6c1.2,0.1,2.4,0.1,3.7-0.1c1.2-0.1,2.2-0.8,2.7-1.5c0.5-0.6,0.7-1.4,0.9-2    h0.8c-0.3,1.6-0.7,3.2-1,4.8c-2.5,0-5-0.1-7.5-0.1c-2.5,0-5,0.1-7.5,0.1v-0.9h0.4c1,0,2.1-0.1,2.1-1.9v-14.5    c0-1.5-1.1-1.6-2.1-1.6h-0.4v-0.8c1.5,0,3,0.1,4.5,0.1c1.4,0,2.9-0.1,4.3-0.1v0.8h-0.7c-1.1,0-1.9,0-1.9,1.5V286.6L434,286.6z"/><path class="st3" d="M442.8,289.5c-2.5,0-5-0.1-7.5-0.1c-2.5,0-5,0.1-7.5,0.1h-0.1v-0.1v-1h0.1h0.4c1,0,2-0.1,2-1.8v-14.5    c0-1.4-1-1.5-2-1.5h-0.5v-0.1v-1h0.1c1.5,0,3,0.1,4.5,0.1c1.4,0,2.8-0.1,4.3-0.1h0.1v0.1v1h-0.1h-0.7c-1.1,0-1.8,0-1.8,1.4v14.6    c0,1.1,0.7,1.3,1.6,1.5c0.5,0,1,0.1,1.6,0.1c0.7,0,1.4,0,2.1-0.1c1.2-0.1,2.1-0.8,2.6-1.5c0.4-0.6,0.7-1.4,0.9-2l0-0.1h0.1h1    l0,0.1c-0.3,1.6-0.7,3.2-1,4.8L442.8,289.5L442.8,289.5L442.8,289.5L442.8,289.5z M442.7,289.3L442.7,289.3c0.3-1.5,0.7-3,1-4.6    h-0.6c-0.2,0.6-0.4,1.4-0.9,2c-0.5,0.7-1.6,1.4-2.8,1.6c-0.7,0.1-1.5,0.1-2.2,0.1c-0.5,0-1.1,0-1.6-0.1c-0.9-0.1-1.8-0.5-1.8-1.7    V272c0-1.6,1-1.6,2-1.6h0.6v-0.6c-1.4,0-2.8,0.1-4.2,0.1c-1.5,0-2.9-0.1-4.3-0.1v0.6h0.3c1,0,2.2,0.2,2.2,1.7v14.5    c0,1.8-1.2,2-2.2,2H428v0.6c2.4,0,4.9-0.1,7.3-0.1C437.8,289.2,440.2,289.3,442.7,289.3L442.7,289.3z"/><path class="st3" d="M443.5,268.9c1.7,0,3,1.3,3,3c0,1.7-1.3,3-3,3s-3-1.3-3-3C440.5,270.2,441.8,268.9,443.5,268.9z M443.5,274.3    L443.5,274.3c1.3,0,2.4-1.1,2.4-2.4c0-1.3-1-2.4-2.4-2.4c-1.3,0-2.4,1.1-2.4,2.4C441.1,273.1,442.1,274.3,443.5,274.3z M442,273.4    L442,273.4v-0.1c0.4-0.1,0.4,0,0.4-0.3v-2.2c0-0.3,0-0.4-0.4-0.4v-0.2h1.5c0.5,0,1,0.2,1,0.8c0,0.4-0.3,0.8-0.7,0.9l0.5,0.7    c0.2,0.3,0.5,0.6,0.7,0.7v0.1h-0.6c-0.3,0-0.5-0.6-1.1-1.4H443v1c0,0.2,0.1,0.2,0.4,0.2v0.1H442L442,273.4z M443,271.9L443,271.9    h0.4c0.4,0,0.6-0.3,0.6-0.8c0-0.5-0.3-0.6-0.6-0.6H443V271.9z"/></g></g></svg>